<?xml version="1.0" encoding="UTF-8" standalone="no"?>
<svg
   width="62.266243mm"
   height="80.619148mm"
   viewBox="0 0 62.266244 80.619148"
   version="1.1"
   id="svg5"
   xmlns="http://www.w3.org/2000/svg">
  <defs
     id="defs2" />
  <g
     id="layer1"
     transform="matrix(0.94155164,0,0,0.94155164,-95.950044,-107.77272)">
    <g
       aria-label="o"
       id="text5008"
       style="font-size:116.019px;font-family:Playkidz;-inkscape-font-specification:Playkidz;stroke-width:2.90047">
      <g
         id="path16007">
        <path
           style="color:#000000;-inkscape-font-specification:Playkidz;fill:#ff5645;-inkscape-stroke:none"
           d="m 134.56546,198.63479 q -8.12133,0 -14.03829,-4.17669 -5.91697,-4.2927 -9.7456,-10.67375 -3.82863,-6.49706 -5.68493,-13.57422 -1.74029,-7.19318 -1.74029,-12.99413 0,-5.80095 1.85631,-12.8781 1.8563,-7.07716 5.56891,-13.45821 3.82863,-6.49706 9.62958,-10.67375 5.91697,-4.2927 13.80626,-4.2927 2.08834,0 4.40872,0.34806 12.06597,2.08834 19.95527,13.57422 8.00531,11.48588 8.00531,27.38048 0,16.4747 -8.46939,28.19262 -8.46939,11.71792 -21.11546,13.11015 z m 3.59659,-13.11015 q 4.06067,0 7.77328,-3.01649 3.7126,-3.13252 6.03298,-9.39754 2.32038,-6.26503 2.32038,-15.89461 0,-9.62957 -2.32038,-15.8946 -2.32038,-6.26502 -6.03298,-9.28152 -3.71261,-3.01649 -7.77328,-3.01649 -4.2927,0 -8.23735,3.24853 -3.94464,3.24853 -6.49706,9.51356 -2.55242,6.26502 -2.55242,15.43052 0,9.1655 2.55242,15.54655 2.55242,6.26503 6.49706,9.51356 3.94465,3.24853 8.23735,3.24853 z"
           id="path1209" />
        <path
           style="color:#000000;-inkscape-font-specification:Playkidz;fill:#3c254d;-inkscape-stroke:none"
           d="m 134.2168,114.46289 c -5.52256,0 -10.46559,1.52666 -14.65821,4.56836 l 0.006,-0.002 c -4.03389,2.9044 -7.38714,6.62301 -10.0332,11.11328 l -0.002,0.004 -0.002,0.004 c -2.53943,4.36465 -4.4462,8.97617 -5.71679,13.82031 -1.26221,4.81216 -1.9043,9.22411 -1.9043,13.2461 0,4.01232 0.60011,8.45193 1.78125,13.33398 l 0.002,0.0137 0.004,0.0137 c 1.27198,4.84944 3.22059,9.50189 5.83789,13.94336 l 0.004,0.004 0.002,0.006 c 2.64818,4.41363 6.03791,8.1265 10.13867,11.10156 l 0.008,0.004 0.008,0.006 c 4.20002,2.96473 9.21217,4.44336 14.875,4.44336 h 0.0332 l 0.0352,-0.002 2.48046,-0.11914 0.0449,-0.004 c 8.83561,-0.97273 16.30179,-5.63555 22.13281,-13.70313 5.83527,-8.07345 8.74414,-17.80938 8.74414,-29.04101 0,-10.83621 -2.74719,-20.29006 -8.25977,-28.20313 l -0.004,-0.006 c -5.4311,-7.90427 -12.47066,-12.71679 -20.90039,-14.17578 l -0.0156,-0.002 -0.0156,-0.004 c -1.61004,-0.24151 -3.15221,-0.36328 -4.625,-0.36328 z m 0,2.90039 c 1.30735,0 2.70131,0.10898 4.17968,0.33008 7.64784,1.32863 13.90685,5.56209 18.99024,12.96289 l 0.002,0.004 0.004,0.004 c 5.15743,7.3998 7.74414,16.19982 7.74414,26.55274 0,10.7346 -2.73807,19.79137 -8.19531,27.34179 -5.45644,7.54932 -12.06042,11.62696 -20.07618,12.51563 l -2.31054,0.10937 c -5.15693,-0.002 -9.49877,-1.30747 -13.1836,-3.90625 -3.78136,-2.74516 -6.88607,-6.14177 -9.33984,-10.22851 l -0.002,-0.006 c -9.6e-4,-0.002 -0.003,-0.002 -0.004,-0.004 -2.48381,-4.21694 -4.32127,-8.61169 -5.52344,-13.19336 -3.6e-4,-0.001 -0.002,-0.003 -0.002,-0.004 -1.13454,-4.6972 -1.69336,-8.91036 -1.69336,-12.625 0,-3.71261 0.59573,-7.88769 1.80859,-12.51172 1.20389,-4.58981 3.00709,-8.94826 5.41602,-13.08985 l 0.004,-0.004 c 2.9e-4,-5.1e-4 -3e-4,-10e-4 0,-0.002 2.45815,-4.1696 5.5238,-7.56338 9.22265,-10.22656 l 0.002,-0.002 0.004,-0.002 c 3.69667,-2.6819 7.95664,-4.01563 12.95313,-4.01563 z m 3.94531,10.20899 c -3.22762,0 -6.33112,1.25028 -9.16016,3.58007 -2.86442,2.35894 -5.15091,5.74862 -6.91797,10.08594 -1.79484,4.40552 -2.6582,9.73357 -2.6582,15.97852 0,6.24495 0.86572,11.60764 2.65625,16.08398 v 0.004 l 0.002,0.006 c 1.76706,4.33732 4.05355,7.72699 6.91797,10.08593 2.82904,2.3298 5.93254,3.57813 9.16016,3.57813 3.06621,0 6.0116,-1.16763 8.6875,-3.3418 l 0.01,-0.008 0.0117,-0.008 c 2.72545,-2.29961 4.84997,-5.66287 6.45703,-10.00196 1.63097,-4.40361 2.41016,-9.86223 2.41016,-16.39843 0,-6.53619 -0.77919,-11.99483 -2.41016,-16.39844 -1.60808,-4.34182 -3.73685,-7.67669 -6.47851,-9.9043 -2.6759,-2.17417 -5.62129,-3.34179 -8.6875,-3.34179 z m 0,2.90039 c 2.34801,0 4.58514,0.84554 6.85937,2.69336 2.20847,1.79438 4.10019,4.64666 5.58594,8.6582 1.46287,3.94975 2.23047,9.08935 2.23047,15.39258 0,6.30323 -0.7676,11.44087 -2.23047,15.39062 -1.4848,4.00897 -3.37873,6.9059 -5.59961,8.7832 -2.26957,1.84018 -4.50235,2.6836 -6.8457,2.6836 -2.49597,0 -4.88592,-0.91639 -7.31641,-2.91797 -2.39509,-1.97243 -4.43805,-4.92536 -6.07422,-8.94141 -1.61044,-4.03023 -2.44531,-9.02657 -2.44531,-14.99804 0,-5.97571 0.83694,-10.93694 2.44531,-14.88477 1.63617,-4.01604 3.67913,-6.96898 6.07422,-8.94141 2.43049,-2.00157 4.82044,-2.91796 7.31641,-2.91796 z"
           id="path1211" />
      </g>
    </g>
  </g>
</svg>
