<?xml version="1.0" encoding="UTF-8" standalone="no"?>
<svg
   width="52.373558mm"
   height="84.85022mm"
   viewBox="0 0 52.373559 84.85022"
   version="1.1"
   id="svg5"
   xmlns="http://www.w3.org/2000/svg">
  <defs
     id="defs2" />
  <g
     id="layer1"
     transform="matrix(0.94563109,0,0,0.96589858,-45.410608,-109.9785)"
     style="fill:#00a8bb;stroke:#3c254d">
    <g
       aria-label="x"
       id="text1640"
       style="font-size:113.496px;font-family:Playkidz;-inkscape-font-specification:Playkidz;stroke-width:2.8374">
      <g
         id="path16004">
        <path
           style="color:#000000;-inkscape-font-specification:Playkidz;stroke:none;-inkscape-stroke:none"
           d="m 90.638899,200.28795 q -2.042928,0 -2.8374,-1.24846 l -13.846513,-27.35253 -13.05204,25.87709 q -1.021464,1.58894 -2.8374,1.58894 -2.042928,0 -3.97236,-1.36195 -1.929432,-1.36195 -1.929432,-3.17789 0,-0.56748 0.340488,-1.24846 L 68.73417,161.35882 49.666842,123.79164 q -0.226992,-0.45398 -0.226992,-0.90796 0,-1.58895 1.929432,-3.29139 1.929432,-1.81593 4.53984,-3.06439 2.610408,-1.24846 4.766832,-1.24846 2.042928,0 2.950896,1.47545 l 13.846512,27.23904 13.052041,-25.87709 q 1.021464,-1.47544 2.8374,-1.47544 1.929432,0 3.858864,1.36195 2.042928,1.36195 2.042928,3.17789 0,0.56748 -0.340488,1.24845 l -16.229929,32.00587 19.067332,37.45368 q 0.22699,0.56749 0.22699,1.13497 0,2.49691 -4.085857,4.88032 -4.085856,2.38342 -7.263744,2.38342 z"
           id="path1481" />
        <path
           style="color:#000000;-inkscape-font-specification:Playkidz;fill:#3c254d;stroke:none;-inkscape-stroke:none"
           d="m 60.675781,113.86133 c -1.711399,0 -3.501461,0.48881 -5.378906,1.38672 -1.851572,0.88553 -3.483928,1.98565 -4.880859,3.29687 -1.441097,1.27614 -2.394532,2.71066 -2.394532,4.33789 0,0.53911 0.14103,1.07113 0.376953,1.54297 l 0.002,0.004 18.742187,36.92968 -15.90625,31.36719 -0.002,0.004 c -0.297486,0.59498 -0.490234,1.22075 -0.490234,1.88281 0,1.71308 1.00227,3.25666 2.53125,4.33594 1.479012,1.04401 3.113799,1.62305 4.791015,1.62305 1.624409,0 3.141526,-0.85927 4.029297,-2.24024 l 0.04102,-0.0625 11.820312,-23.43555 12.609375,24.90821 0.03906,0.0586 c 0.825351,1.29699 2.382257,1.90625 4.033203,1.90625 2.473265,0 5.116337,-0.90656 7.978515,-2.57617 2.910153,-1.69758 4.789063,-3.66898 4.789063,-6.10742 0,-0.56748 -0.11624,-1.13043 -0.32812,-1.66016 l -0.0234,-0.0606 -18.769534,-36.86914 15.906254,-31.36523 0.002,-0.004 c 0.29749,-0.59497 0.49023,-1.22075 0.49023,-1.88281 0,-1.73779 -1.067386,-3.28055 -2.664059,-4.34961 -1.462882,-1.02791 -3.0433,-1.60937 -4.65625,-1.60937 -1.594851,0 -3.098972,0.77881 -4.003906,2.08593 l -0.05664,0.082 -11.833984,23.46289 -12.603516,-24.79297 -0.0293,-0.0488 c -0.85422,-1.38811 -2.456666,-2.15039 -4.160156,-2.15039 z m 0,2.83594 c 1.010755,0 1.377205,0.22208 1.730469,0.78906 l 15.072266,29.64844 14.246093,-28.24414 c 0.443018,-0.62291 0.832202,-0.83008 1.638672,-0.83008 0.952476,0 1.936748,0.32208 3.041016,1.10156 l 0.01563,0.0117 0.01563,0.01 c 1.11981,0.74654 1.410156,1.31944 1.410156,1.99805 0,0.0946 -0.03491,0.3003 -0.191406,0.61328 l -16.550781,32.64258 19.343754,37.99414 c 0.0856,0.2193 0.12304,0.40754 0.12304,0.5918 0,0.89077 -0.845158,2.17595 -3.38281,3.65625 -2.585625,1.50828 -4.784913,2.18945 -6.548828,2.18945 -1.060674,0 -1.395303,-0.22188 -1.628906,-0.58203 L 73.953125,168.54102 59.693359,196.81445 c -0.466507,0.71698 -0.839264,0.91992 -1.626953,0.91992 -1.046685,0 -2.060736,-0.32963 -3.154297,-1.10156 -1.043594,-0.73665 -1.330078,-1.31136 -1.330078,-2.01953 0,-0.0946 0.03491,-0.30028 0.191406,-0.61328 L 70.324219,161.35937 50.935547,123.15625 c -0.06673,-0.13346 -0.07617,-0.20724 -0.07617,-0.27344 0,-0.48506 0.327124,-1.23648 1.449219,-2.22656 l 0.01563,-0.0156 0.01758,-0.0156 c 1.17192,-1.10298 2.558213,-2.04092 4.179687,-2.81641 1.603096,-0.7667 2.990467,-1.11132 4.154297,-1.11132 z"
           id="path1483" />
      </g>
    </g>
  </g>
</svg>
