<?xml version="1.0" encoding="UTF-8" standalone="no"?>
<!-- Created with Inkscape (http://www.inkscape.org/) -->

<svg
   version="1.1"
   id="svg9"
   width="250"
   height="62"
   viewBox="0 0 250 62"
   sodipodi:docname="arsenkids-black.svg"
   inkscape:version="1.1.2 (b8e25be833, 2022-02-05)"
   xmlns:inkscape="http://www.inkscape.org/namespaces/inkscape"
   xmlns:sodipodi="http://sodipodi.sourceforge.net/DTD/sodipodi-0.dtd"
   xmlns="http://www.w3.org/2000/svg"
   xmlns:svg="http://www.w3.org/2000/svg">
  <sodipodi:namedview
     id="namedview54"
     pagecolor="#ffffff"
     bordercolor="#666666"
     borderopacity="1.0"
     inkscape:pageshadow="2"
     inkscape:pageopacity="0.0"
     inkscape:pagecheckerboard="0"
     showgrid="false"
     inkscape:zoom="11.98"
     inkscape:cx="125"
     inkscape:cy="30.96828"
     inkscape:window-width="3440"
     inkscape:window-height="1377"
     inkscape:window-x="-8"
     inkscape:window-y="-8"
     inkscape:window-maximized="1"
     inkscape:current-layer="svg9" />
  <defs
     id="defs13" />
  <g
     id="layer1">
    <g
       aria-label="ArsenKids"
       id="text1972"
       style="font-size:60px;line-height:1.25;font-family:Playkidz;-inkscape-font-specification:Playkidz">
      <path
         d="m 10.16062,53.956153 c 1.44,0 2.94,-0.72 2.94,-2.4 l -0.06,-2.46 0.06,-3.6 14.16,0.3 v 4.5 c 0,1.74 1.5,3.18 3.3,3.18 h 1.68 c 0.9,0 1.68,-0.3 2.34,-0.96 0.66,-0.6 0.96,-1.32 0.96,-2.22 0,-10.92 -0.54,-20.16 -2.1,-27 -2.22,-9.54 -7.5,-13.68 -12.12,-13.68 -0.72,0 -1.44,0.12 -2.1,0.3 -8.64,2.58 -11.0399995,17.82 -11.6399995,30 -1.14,0.12 -1.68,1.44 -1.68,2.76 0,1.26 0.48,2.58 1.5,2.7 0,2.64 0,4.98 0.06,6.78 0,1.14 1.38,1.8 2.6999995,1.8 z m 16.92,-13.62 -13.74,-0.3 c 0.54,-10.38 2.28,-23.64 7.38,-23.64 h 0.18 c 1.62,0.12 3.24,2.58 4.44,8.64 0.96,4.08 1.5,9.24 1.74,15.3 z"
         id="path235" />
      <path
         d="m 45.800553,39.976153 1.56,-25.74 c 6.9,1.2 10.02,6.06 10.02,11.34 0,6.06 -4.2,12.6 -11.58,14.4 z m -4.14,14.76 c 0.42,0 0.78,0 1.2,-0.18 2.1,-0.9 2.22,-2.88 2.34,-4.86 l 0.24,-4.38 1.26,-0.18 c 1.56,2.94 4.5,7.26 9.36,9.12 0.48,0.18 0.84,0.24 1.2,0.24 1.62,0 2.34,-1.44 2.34,-2.88 0,-1.2 -0.48,-2.34 -1.44,-2.58 -0.48,-0.06 -0.84,-0.42 -1.2,-0.66 -1.8,-1.32 -2.82,-3.36 -3.42,-5.34 7.5,-3.66 11.82,-11.1 11.82,-18.12 0,-8.04 -5.64,-15.48 -18.72,-16.08 h -1.08 c -2.22,0 -4.44,0.3 -6.54,0.9 -1.68,0.48 -2.58,1.74 -2.58,2.94 0,1.14 0.84,2.16 2.64,2.22 l -1.38,36.48 c 0,1.86 1.5,3.36 3.3,3.36 z"
         id="path237" />
      <path
         d="m 78.800588,54.316153 c 7.62,0 12.24,-5.28 12.24,-11.04 v -0.72 c -0.42,-5.88 -4.02,-8.1 -7.92,-10.32 -2.64,-1.5 -5.4,-3.06 -7.38,-5.88 -1.44,-2.04 -2.04,-4.14 -2.04,-5.94 0,-3.12 1.8,-5.52 4.32,-5.52 0.36,0 0.84,0.06 1.26,0.18 1.92,0.54 3.6,2.46 4.74,4.8 0.36,0.78 1.26,1.08 2.34,1.08 2.34,0 5.4,-1.56 5.4,-3.6 0,-0.36 -0.12,-0.72 -0.3,-1.08 -2.4,-4.44 -6.66,-7.08 -11.16,-7.08 h -0.3 c -7.8,0.18 -13.26,6.6 -13.26,13.8 0,5.88 3.66,12.36 12.66,16.5 3.42,1.62 4.68,3.48 4.68,5.1 0,2.58 -3,4.68 -5.76,4.68 -2.28,0 -4.32,-1.44 -4.32,-5.22 l 0.06,-1.26 c 0,-1.14 -3.6,-3.84 -5.82,-3.84 -0.72,0 -1.32,0.3 -1.56,1.02 -0.48,1.5 -0.72,2.88 -0.72,4.14 0,6.18 5.28,9.9 12.12,10.2 z"
         id="path239" />
      <path
         d="m 96.140606,53.716153 c 2.64,-0.24 5.340004,-0.3 7.980004,-0.3 l 9,0.06 c 1.14,0 1.8,-1.5 1.8,-2.88 0,-1.26 -0.54,-2.46 -1.74,-2.46 l -10.86,0.42 c -0.18,-1.98 -0.3,-3.9 -0.42,-5.82 l 7.86,0.36 c 1.2,0 1.74,-1.26 1.74,-2.52 0,-1.38 -0.66,-2.82 -1.8,-2.82 h -7.92 v -2.58 c 0,-6.6 0.36,-13.2 0.9,-19.8 l 10.74,0.42 c 1.2,0 1.92,-1.62 1.92,-3.06 0,-1.2 -0.54,-2.34 -1.68,-2.34 -6.78,-0.06 -13.26,-0.12 -19.980004,-0.54 h -0.12 c -1.2,0 -1.8,1.32 -1.8,2.58 0,1.14 0.54,2.28 1.56,2.34 l 1.14,0.12 c -0.6,6.96 -0.96,13.92 -0.96,20.94 0,5.46 0.24,10.92 0.84,16.38 0.06,0.84 0.84,1.5 1.68,1.5 z"
         id="path241" />
      <path
         d="m 138.98058,54.256153 c 2.1,0 5.04,-0.96 5.16,-2.28 1.26,-13.44 1.62,-27.12 1.62,-40.62 0,-1.2 -1.14,-1.68 -2.34,-1.68 -1.62,0 -3.42,0.78 -3.42,1.98 v 0.06 c 0.06,4.5 0.18,8.7 0.18,12.84 0,5.46 -0.18,10.86 -0.6,16.74 -6,-10.56 -10.08,-20.52 -14.4,-31.08 -0.3,-0.66 -1.44,-0.96 -2.76,-0.96 -2.1,0 -4.74,0.84 -4.74,2.28 v 0.06 c 0.36,5.64 0.48,11.46 0.48,17.28 0,7.86 -0.3,15.78 -0.72,23.46 v 0.06 c 0,1.2 1.68,1.86 3.18,1.86 1.38,0 2.64,-0.48 2.7,-1.62 0.3,-5.34 0.48,-11.1 0.48,-16.74 l -0.12,-8.28 c 4.02,8.76 8.46,17.52 13.2,25.92 0.24,0.48 1.08,0.72 2.1,0.72 z"
         id="path243" />
      <path
         d="m 167.18062,54.136153 c 1.56,0 3.36,-0.84 3.36,-2.1 l -0.06,-0.42 c -1.62,-5.4 -5.58,-11.28 -8.04,-14.52 5.1,-7.14 7.32,-18.54 7.98,-25.68 v -0.18 c 0,-1.26 -1.56,-1.86 -3.12,-1.86 -1.44,0 -2.88,0.54 -2.88,1.74 -0.12,6.9 -2.1,20.34 -8.4,25.14 -0.06,-1.62 -0.12,-3.24 -0.12,-4.8 l -0.06,-6 c 0,-4.56 0.12,-9.06 0.36,-13.56 v -0.06 c 0,-1.32 -2.58,-2.16 -4.8,-2.16 -1.8,0 -3.42,0.54 -3.48,1.74 -0.24,4.62 -0.36,9.24 -0.36,13.98 l 0.06,6.18 c 0.12,6.96 0.48,13.86 0.96,20.76 0.06,1.14 1.62,1.68 3.3,1.68 2.34,0 4.98,-0.9 4.98,-2.22 v -0.06 c -0.24,-3.12 -0.42,-6.24 -0.6,-9.3 0.9,-0.42 1.8,-0.9 2.58,-1.56 2.04,3.06 4.92,7.8 6.12,12.06 0.24,0.84 1.2,1.2 2.22,1.2 z"
         id="path245" />
      <path
         d="m 182.42062,53.176153 c 1.14,0 1.74,-1.26 1.74,-2.52 0,-1.26 -0.54,-2.46 -1.68,-2.46 l -1.02,-0.06 c -0.12,-3.9 -0.18,-7.74 -0.18,-11.4 l 0.06,-6 c 0.06,-5.28 0.36,-10.32 0.72,-15.18 h 0.84 c 1.2,0 1.8,-1.32 1.8,-2.58 0,-1.2 -0.54,-2.34 -1.68,-2.34 l -9.24,-0.3 c -1.14,0 -1.68,1.08 -1.68,2.28 0,1.26 0.6,2.58 1.74,2.64 h 0.6 c -0.36,4.92 -0.66,10.02 -0.72,15.36 l -0.06,6 c 0,3.66 0.06,7.38 0.18,11.28 -0.18,-0.06 -0.12,-0.06 -0.3,-0.06 -1.2,0 -1.8,1.38 -1.8,2.76 0,1.32 0.54,2.58 1.74,2.58 z"
         id="path247" />
      <path
         d="m 196.10058,49.156153 c 0.42,-11.34 0.9,-28.62 1.08,-34.98 7.62,1.02 11.82,9.48 11.82,17.82 0,8.16 -4.02,16.26 -12.9,17.16 z m -0.96,5.4 c 14.94,0 22.26,-11.46 22.26,-22.98 0,-11.22 -7.08,-22.44 -21.06,-22.62 -2.58,0 -5.22,0.36 -7.62,1.14 -1.68,0.48 -2.52,1.74 -2.52,2.82 0,1.14 0.9,2.16 2.7,2.16 h 0.06 l -0.12,33.9 c -1.14,0.12 -1.92,1.68 -1.92,3 0,0.9 0.36,1.68 1.26,1.86 2.46,0.54 4.8,0.72 6.96,0.72 z"
         id="path249" />
      <path
         d="m 230.84061,54.316153 c 7.62,0 12.24,-5.28 12.24,-11.04 v -0.72 c -0.42,-5.88 -4.02,-8.1 -7.92,-10.32 -2.64,-1.5 -5.4,-3.06 -7.38,-5.88 -1.44,-2.04 -2.04,-4.14 -2.04,-5.94 0,-3.12 1.8,-5.52 4.32,-5.52 0.36,0 0.84,0.06 1.26,0.18 1.92,0.54 3.6,2.46 4.74,4.8 0.36,0.78 1.26,1.08 2.34,1.08 2.34,0 5.4,-1.56 5.4,-3.6 0,-0.36 -0.12,-0.72 -0.3,-1.08 -2.4,-4.44 -6.66,-7.08 -11.16,-7.08 h -0.3 c -7.8,0.18 -13.26,6.6 -13.26,13.8 0,5.88 3.66,12.36 12.66,16.5 3.42,1.62 4.68,3.48 4.68,5.1 0,2.58 -3,4.68 -5.76,4.68 -2.28,0 -4.32,-1.44 -4.32,-5.22 l 0.06,-1.26 c 0,-1.14 -3.6,-3.84 -5.82,-3.84 -0.72,0 -1.32,0.3 -1.56,1.02 -0.48,1.5 -0.72,2.88 -0.72,4.14 0,6.18 5.28,9.9 12.12,10.2 z"
         id="path251" />
    </g>
  </g>
</svg>
