<?xml version="1.0" encoding="UTF-8" standalone="no"?>
<!-- Created with Inkscape (http://www.inkscape.org/) -->

<svg
   version="1.1"
   id="svg9"
   width="250"
   height="62"
   viewBox="0 0 250 62"
   xmlns="http://www.w3.org/2000/svg"
   xmlns:svg="http://www.w3.org/2000/svg">
  <defs
     id="defs13" />
  <g
     id="layer1"
     style="display:inline">
    <path
       style="color:#000000;-inkscape-font-specification:Playkidz;fill:#3c254d;-inkscape-stroke:none"
       d="m 21.320312,7.8652344 c -0.914443,0 -1.779333,0.1502231 -2.560546,0.3632812 l -0.01953,0.00391 -0.01953,0.00781 C 13.538074,9.787825 10.54667,14.894323 8.7148438,20.796875 6.9840401,26.37391 6.2627595,32.863747 5.9277344,38.769531 c -0.4946416,0.345357 -0.901528,0.779276 -1.1523438,1.240235 -0.4665622,0.857465 -0.625,1.76738 -0.625,2.666015 0,0.852222 0.1361704,1.716927 0.546875,2.550781 0.2073711,0.421027 0.5358385,0.857594 0.9628906,1.208985 0.00108,2.128872 6.74e-5,4.165448 0.050781,5.720703 0,1.276139 0.8435048,2.309049 1.7011719,2.826172 0.857667,0.517123 1.7963813,0.724609 2.7480469,0.724609 1.011666,0 2.075155,-0.226428 3.017578,-0.888672 0.942424,-0.662243 1.673828,-1.900886 1.673829,-3.261718 v -0.02148 l -0.06055,-2.445312 0.0293,-1.806641 10.689453,0.226563 v 2.787109 c 0,2.745744 2.31745,4.929688 5.050781,4.929687 h 1.679687 c 1.273831,10e-7 2.581838,-0.508836 3.539063,-1.447265 0.962682,-0.891021 1.511719,-2.205954 1.511719,-3.482422 0,-10.977681 -0.528027,-20.302874 -2.144532,-27.390625 v -0.0039 l -0.002,-0.002 C 32.811035,12.872663 26.985761,7.8652344 21.320312,7.8652344 Z m 0,3.4999996 c 3.574542,0 8.309517,3.275872 10.416016,12.328125 1.502339,6.591739 2.054688,15.7449 2.054688,26.603516 0,0.511111 -0.04702,0.615016 -0.386719,0.923828 l -0.03125,0.0293 -0.0293,0.0293 c -0.360015,0.360015 -0.592405,0.447266 -1.103516,0.447265 h -1.679687 c -0.866666,0 -1.550781,-0.695435 -1.550781,-1.429687 v -6.214844 l -17.628907,-0.373047 -0.08984,5.394532 0.05859,2.455078 c -2.22e-4,0.3131 -0.01896,0.279423 -0.185546,0.396484 -0.167576,0.117756 -0.575574,0.251953 -1.003907,0.251953 -0.3683324,0 -0.7790742,-0.124779 -0.941406,-0.222656 -0.1623318,-0.09788 -0.00781,0.03574 -0.00781,0.171875 v -0.0293 l -0.00195,-0.0293 C 9.1506668,50.348129 9.1503906,48.01695 9.1503906,45.376953 V 43.820312 L 7.8359375,43.666016 c -0.083636,-0.175559 -0.1855469,-0.587967 -0.1855469,-0.990235 0,-0.421363 0.1107815,-0.831607 0.1992188,-0.99414 0.088437,-0.162534 -0.020181,-0.03231 -0.085937,-0.02539 L 9.2539063,41.5 9.328125,40.001953 c 0.2961228,-6.011293 1.050346,-12.760532 2.728516,-18.167969 1.676426,-5.401817 4.202455,-9.197291 7.654296,-10.234375 0.53042,-0.14236 1.0932,-0.234375 1.609375,-0.234375 z m -0.599609,3.28125 c -2.033331,0 -3.646843,1.372434 -4.707031,3.048828 -1.060188,1.676395 -1.797108,3.79968 -2.392578,6.208985 -1.190941,4.818609 -1.754286,10.792242 -2.027344,16.041015 L 11.5,41.746094 28.902344,42.126953 28.830074,40.267578 C 28.588218,34.160702 28.047095,28.927024 27.050777,24.675781 26.4314,21.554633 25.71189,19.294218 24.814449,17.650391 c -0.899621,-1.64782 -2.139453,-2.878096 -3.785156,-3 l -0.06445,-0.0039 z m 0,3.5 h 0.05469 c -0.02189,-0.0013 0.354231,0.05961 0.966796,1.181641 0.615378,1.127177 1.301244,3.121767 1.88086,6.048828 l 0.0078,0.0293 0.0059,0.03125 c 0.814835,3.463049 1.290626,7.974103 1.5625,13.107422 l -9.962891,-0.216797 c 0.300895,-4.670484 0.817155,-9.675301 1.783203,-13.583984 0.544529,-2.203191 1.233862,-4.043507 1.951172,-5.177735 0.71731,-1.134228 1.233334,-1.419922 1.75,-1.419922 z"
       id="path1559" />
    <path
       style="color:#000000;-inkscape-font-specification:Playkidz;fill:#3c254d;-inkscape-stroke:none"
       d="m 45.560547,7.0859375 c -2.377655,0 -4.756395,0.3196284 -7.021485,0.9667969 -2.299092,0.6568834 -3.847656,2.5480486 -3.847656,4.6230466 0,0.999824 0.403955,2.054639 1.201172,2.796875 0.392026,0.36499 0.863268,0.64088 1.382813,0.835938 L 35.951172,51.34375 v 0.0332 c 0,2.800858 2.276609,5.109375 5.048828,5.109375 h 0.660156 c 0.42,0 1.137832,3.6e-4 1.890625,-0.322266 1.465991,-0.628281 2.440585,-1.849421 2.869141,-3.041015 0.428556,-1.191594 0.467344,-2.330314 0.527344,-3.320313 v -0.0059 l 0.04883,-0.873047 c 1.838513,2.634392 4.52084,5.467081 8.439453,6.966797 l 0.0059,0.002 0.0039,0.002 c 0.629642,0.236116 1.26001,0.351563 1.814454,0.351563 1.328517,0 2.550113,-0.711258 3.207031,-1.638672 0.656918,-0.927414 0.882812,-1.980522 0.882812,-2.992188 0,-0.833332 -0.14937,-1.66587 -0.554687,-2.451172 -0.405317,-0.785301 -1.163069,-1.564693 -2.208985,-1.826171 l -0.103515,-0.02539 -0.105469,-0.01367 c 0.268025,0.0335 0.138701,0.01044 -0.445312,-0.378906 l 0.06445,0.04492 c -1.052467,-0.771809 -1.74938,-1.987697 -2.291016,-3.298828 7.164624,-4.170263 11.40625,-11.510749 11.40625,-18.75 0,-4.4292 -1.587382,-8.802378 -4.990234,-12.087891 C 58.718241,9.542612 53.579954,7.4025352 46.720703,7.0878906 l -0.03906,-0.00195 z m 0,3.5000005 h 1.017578 c 6.210296,0.28832 10.426933,2.167936 13.111328,4.759765 2.687141,2.594481 3.921875,5.95952 3.921875,9.570313 0,6.302045 -3.93991,13.18066 -10.837891,16.546875 l -1.339843,0.654296 0.43164,1.425782 c 0.662887,2.187527 1.821416,4.602111 4.060547,6.24414 l 0.03125,0.02344 0.0332,0.02148 c 0.135987,0.09066 0.725102,0.787904 1.953125,0.941406 l -0.207031,-0.03906 c -0.08592,-0.02148 -0.125464,-0.109541 -0.05078,0.03516 0.07468,0.144698 0.164062,0.479037 0.164062,0.845703 0,0.428333 -0.132153,0.816166 -0.240234,0.96875 -0.108081,0.152585 -0.05813,0.16211 -0.349609,0.16211 -0.164383,0 -0.25543,-0.0056 -0.580079,-0.126953 -0.0023,-8.66e-4 -0.0016,-0.0011 -0.0039,-0.002 -4.229535,-1.623242 -6.964858,-5.540141 -8.429687,-8.300781 l -0.576172,-1.085937 -3.898438,0.55664 -0.318359,5.802735 c -0.06,0.989999 -0.139728,1.831205 -0.326172,2.349609 -0.186443,0.518404 -0.321071,0.736095 -0.955078,1.007813 -0.08721,0.03737 -0.09172,0.03906 -0.511719,0.03906 H 41 c -0.827172,0 -1.547774,-0.689288 -1.548828,-1.607422 -10e-7,-6.71e-4 0,-0.0013 0,-0.002 l 1.445312,-38.171875 -1.757812,-0.05859 c -0.579053,-0.0193 -0.788546,-0.168565 -0.861328,-0.236328 -0.07278,-0.06776 -0.08594,-0.0942 -0.08594,-0.234375 0,-0.324999 0.249643,-0.954697 1.310547,-1.257812 1.934906,-0.552831 3.996254,-0.832031 6.058594,-0.832031 z m 0.171875,1.589843 -1.822266,30.0625 2.304688,-0.5625 c 8.179531,-1.995007 12.916015,-9.231035 12.916015,-16.099609 0,-5.969388 -3.872626,-11.743049 -11.470703,-13.064453 z m 3.238281,4.417969 c 4.657859,1.528811 6.660156,4.946081 6.660156,8.982422 0,4.551987 -2.892951,9.380186 -7.912109,11.675781 z"
       id="path1565" />
    <path
       style="color:#000000;-inkscape-font-specification:Playkidz;fill:#3c254d;-inkscape-stroke:none"
       d="m 79.980469,7.4453125 -0.01953,0.00195 C 71.220287,7.6489729 64.990234,14.91138 64.990234,22.996094 c 0,6.606184 4.213488,13.735392 13.679688,18.089843 l -0.01758,-0.0078 c 3.101939,1.46934 3.677734,2.804986 3.677734,3.517578 0,0.611705 -0.381648,1.316749 -1.166016,1.923828 -0.784367,0.60708 -1.907591,1.00586 -2.84375,1.00586 -0.771578,0 -1.327683,-0.208154 -1.75,-0.650391 -0.421182,-0.44105 -0.816229,-1.24178 -0.818359,-2.808594 l 0.05859,-1.228515 v -0.04102 c 0,-1.206051 -0.550237,-1.700272 -1.046875,-2.251953 -0.496638,-0.551681 -1.102423,-1.06056 -1.783203,-1.533203 -1.36156,-0.945287 -2.920777,-1.804688 -4.740235,-1.804688 -1.20611,0 -2.75012,0.803097 -3.220703,2.214844 l -0.002,0.01172 -0.0039,0.0098 c -0.523349,1.635467 -0.802735,3.189655 -0.802735,4.671875 0,3.588379 1.614933,6.641947 4.152344,8.671875 2.537411,2.029929 5.923984,3.114334 9.640625,3.277344 l 0.03906,0.002 h 0.757812 c 8.428391,0 13.990235,-6.095258 13.990235,-12.791015 v -0.78125 l -0.0039,-0.0625 c -0.2342,-3.278812 -1.439729,-5.770066 -3.113281,-7.591797 -1.673552,-1.821732 -3.720736,-3.005458 -5.6875,-4.125 h -0.002 c -2.642374,-1.501349 -5.097573,-2.922763 -6.8125,-5.365235 l -0.002,-0.002 c -1.245773,-1.764845 -1.71875,-3.520531 -1.71875,-4.93164 0,-1.223461 0.362692,-2.229247 0.849609,-2.859375 0.486917,-0.630128 1.01626,-0.910157 1.720703,-0.910157 0.165556,0 0.549788,0.04771 0.779297,0.113282 h 0.002 l 0.0039,0.002 c 1.135358,0.319319 2.632032,1.81059 3.640625,3.880859 l -0.01563,-0.0332 c 0.376752,0.816297 1.093018,1.406698 1.802734,1.708984 0.709716,0.302287 1.424917,0.388672 2.126953,0.388672 1.558887,0 3.133259,-0.464548 4.488281,-1.291015 1.355023,-0.826468 2.660157,-2.165549 2.660157,-4.060547 0,-0.748888 -0.234809,-1.362196 -0.484375,-1.861328 L 93.013672,15.46875 93,15.443359 C 90.326067,10.496584 85.485221,7.4453125 80.300781,7.4453125 Z m 0.06055,3.5000005 h 0.259765 c 3.806396,0 7.475129,2.221104 9.603516,6.136718 0.08673,0.186212 0.105469,0.300024 0.105469,0.273438 0,0.145 -0.222447,0.608734 -0.982422,1.072265 -0.759975,0.463531 -1.884906,0.779297 -2.666016,0.779297 -0.377962,0 -0.655576,-0.06666 -0.755859,-0.109375 -0.100284,-0.04271 -0.01285,0.0086 0.0039,0.04492 l -0.0078,-0.01563 -0.0078,-0.01758 c -1.271006,-2.608907 -3.13463,-4.95536 -5.837891,-5.716797 -7.66e-4,-2.18e-4 -0.0012,-0.0017 -0.002,-0.002 -0.607394,-0.17271 -1.180504,-0.244141 -1.732422,-0.244141 -1.815553,0 -3.447153,0.919662 -4.490234,2.269532 -1.043081,1.34987 -1.580078,3.103463 -1.580078,5 0,2.188886 0.725151,4.634068 2.359375,6.949218 2.244456,3.194638 5.30704,4.894684 7.943359,6.392578 1.933233,1.100456 3.637305,2.135954 4.84375,3.449219 1.203153,1.309682 2.004694,2.868615 2.19336,5.457031 v 0.611329 c 0,4.824231 -3.678641,9.291015 -10.490235,9.291015 H 78.146484 C 75.02861,52.427459 72.358946,51.502782 70.548828,50.054687 68.736243,48.60462 67.710937,46.70685 67.710937,44.115234 c 0,-0.972611 0.216134,-2.118938 0.597657,-3.378906 0.435905,0.02363 1.707079,0.477852 2.675781,1.150391 0.496719,0.344856 0.929998,0.724807 1.177734,1 0.09624,0.10691 0.113316,0.177772 0.13086,0.230468 L 72.25,44.013672 v 0.04297 c 0,2.204812 0.621381,4.013566 1.789062,5.236328 1.167682,1.222761 2.772831,1.732422 4.28125,1.732422 1.823839,0 3.580699,-0.650363 4.986329,-1.738282 1.40563,-1.087919 2.523437,-2.723113 2.523437,-4.691406 0,-2.527405 -1.941634,-4.910983 -5.679687,-6.681641 l -0.0098,-0.0039 -0.0078,-0.0039 C 71.59903,33.98071 68.490234,28.149898 68.490234,22.996094 c 0,-6.315272 4.691447,-11.892489 11.550782,-12.050781 z"
       id="path1571" />
    <path
       style="color:#000000;-inkscape-font-specification:Playkidz;fill:#3c254d;-inkscape-stroke:none"
       d="m 93.560547,8.1054688 c -1.241666,-1e-7 -2.31521,0.7978602 -2.839844,1.6503906 -0.524634,0.8525306 -0.710937,1.7719106 -0.710937,2.6796876 0,0.846315 0.175625,1.693715 0.65039,2.480469 0.385622,0.63903 1.126057,1.160977 1.984375,1.40625 C 92.12008,22.800717 91.75,29.285234 91.75,35.835937 c 0,5.493105 0.245719,11.00036 0.849609,16.517579 0.138414,1.843075 1.669334,3.113281 3.421875,3.113281 h 0.199219 l 0.07813,-0.0078 c 2.555219,-0.232292 5.200877,-0.292788 7.810557,-0.292968 l 9.00585,0.06055 h 0.006 c 1.33754,0 2.35612,-0.930804 2.85352,-1.816406 0.49738,-0.885601 0.69531,-1.845468 0.69531,-2.814453 0,-0.879999 -0.15758,-1.78256 -0.68359,-2.626953 -0.52602,-0.844393 -1.62331,-1.582031 -2.80664,-1.582031 h -0.0332 l -9.20312,0.355468 c -0.0558,-0.723918 -0.10888,-1.448487 -0.15625,-2.167968 l 5.93359,0.271484 h 0.0391 c 1.21249,0 2.30621,-0.780495 2.82031,-1.632812 0.51409,-0.852318 0.66992,-1.75672 0.66992,-2.636719 0,-0.968985 -0.2006,-1.925749 -0.70703,-2.802735 -0.50643,-0.876985 -1.53496,-1.767578 -2.8418,-1.767578 h -6.16992 v -0.830078 c 0,-5.979751 0.35407,-11.975775 0.81641,-17.982422 l 9.03906,0.353516 h 0.0332 c 1.3875,0 2.41858,-0.964411 2.93555,-1.880859 0.51697,-0.916449 0.73437,-1.918022 0.73437,-2.929688 0,-0.862499 -0.16385,-1.742758 -0.68554,-2.560547 -0.5217,-0.8177881 -1.59081,-1.5292966 -2.74414,-1.5292966 -6.77369,-0.05995 -13.21588,-0.1211583 -19.871103,-0.5371094 l -0.05469,-0.00391 z m 0.136719,3.5019532 c 6.675374,0.412959 13.098444,0.476025 19.773434,0.535156 0.0424,0.09533 0.11914,0.298951 0.11914,0.59375 0,0.428333 -0.14017,0.957388 -0.2832,1.210938 -0.13902,0.246451 -0.0664,0.105596 0.10938,0.09766 l -12.34375,-0.482422 -0.13672,1.671875 c -0.54258,6.631495 -0.9043,13.277777 -0.9043,19.941406 v 4.330078 h 9.66992 c -0.16684,0 -0.29802,-0.170435 -0.18945,0.01758 0.10857,0.188014 0.23828,0.641721 0.23828,1.052735 0,0.348649 -0.0955,0.636367 -0.1543,0.759765 l -9.5625,-0.4375 0.1211,1.947266 c 0.12,1.919998 0.24094,3.857398 0.42383,5.869141 l 0.15039,1.654297 12.30273,-0.476563 c 0.05,0.106476 0.13867,0.35949 0.13867,0.703125 0,0.411014 -0.13044,0.892165 -0.24804,1.101563 -0.11761,0.209397 0.002,0.0293 0.19921,0.0293 l -8.99414,-0.06055 h -0.006 c -2.61532,0 -5.312619,0.06519 -7.982418,0.300781 h -0.0625 C 95.489171,46.601775 95.25,41.225059 95.25,35.835937 c 0,-6.960163 0.358509,-13.868854 0.955078,-20.789062 l 0.146484,-1.710937 -2.707031,-0.285157 c -0.05208,-0.107333 -0.134765,-0.346251 -0.134765,-0.615234 0,-0.345667 0.11214,-0.698961 0.1875,-0.828125 z"
       id="path1577" />
    <path
       style="color:#000000;-inkscape-font-specification:Playkidz;fill:#3c254d;-inkscape-stroke:none"
       d="m 122.41992,7.5058594 c -1.28333,0 -2.62784,0.2267152 -3.83789,0.7382812 -0.60502,0.255783 -1.18521,0.581939 -1.69531,1.09375 -0.51011,0.5118111 -0.95703,1.3044974 -0.95703,2.1992184 v 0.115235 l 0.004,0.05469 c 0.3567,5.588289 0.47657,11.373983 0.47657,17.169922 0,7.815463 -0.2979,15.703422 -0.7168,23.363281 l -0.002,0.04883 v 0.107422 c 0,1.416666 1.03103,2.446356 1.9707,2.933594 0.93967,0.487238 1.95232,0.675781 2.95898,0.675781 0.8929,0 1.79527,-0.125213 2.66407,-0.585937 0.86879,-0.460724 1.72008,-1.492214 1.7832,-2.691406 0.30156,-5.369643 0.48242,-11.156777 0.48242,-16.832032 v -0.01367 l -0.006,-0.390625 c 3.08999,6.365835 6.31364,12.697843 9.76953,18.826172 9.5e-4,0.0019 0.003,0.002 0.004,0.0039 0.43339,0.861984 1.16075,1.216631 1.77734,1.417968 0.61794,0.201777 1.23751,0.265625 1.88477,0.265625 1.31666,0 2.71667,-0.267138 3.97265,-0.769531 0.628,-0.251196 1.22106,-0.55694 1.75782,-1.011719 0.53676,-0.454778 1.08527,-1.137241 1.17187,-2.089843 1.26712,-13.517772 1.62696,-27.249491 1.62696,-40.779297 0,-1.154166 -0.71198,-2.2571763 -1.54688,-2.7753909 -0.8349,-0.5182146 -1.70964,-0.6542969 -2.54297,-0.6542969 -1.09086,0 -2.16471,0.2312365 -3.13476,0.7441407 C 139.3151,9.1828261 138.25,10.181251 138.25,11.65625 v 0.07227 0.01172 c 0.0602,4.516584 0.17969,8.710227 0.17969,12.816407 0,3.220936 -0.21492,6.581786 -0.35352,9.871093 -4.25113,-8.267511 -7.7979,-16.374479 -11.27539,-24.8749996 l -0.0137,-0.029297 -0.0137,-0.03125 C 126.31923,8.4929236 125.46326,8.0641217 124.7207,7.8242187 123.97815,7.5843158 123.2125,7.5058594 122.41992,7.5058594 Z m 1.16992,3.4453126 c 4.30931,10.533803 8.41757,20.558903 14.46875,31.208984 l 2.85547,5.025391 0.41211,-5.765625 c 0.42289,-5.9205 0.60352,-11.364825 0.60352,-16.863281 0,-4.166209 -0.1198,-8.365612 -0.17969,-12.839844 v -0.02344 -0.03711 c 0,0.275 -0.16307,0.284517 0.17187,0.107422 0.33495,-0.177095 0.96892,-0.337891 1.49805,-0.337891 0.30819,0 0.49071,0.07081 0.58594,0.107422 -0.003,13.331031 -0.36265,26.813085 -1.5918,40.039063 -0.12349,0.09908 -0.39318,0.266646 -0.76172,0.414062 -0.76901,0.307607 -1.88854,0.519531 -2.67187,0.519531 -0.33266,0 -0.57282,-0.04733 -0.71289,-0.08398 -4.66115,-8.277753 -9.03523,-16.904013 -12.9961,-25.535156 l -3.33984,0.753906 0.11914,8.28125 c -5.4e-4,5.528181 -0.17924,11.170442 -0.4707,16.417969 -0.14829,0.06553 -0.50345,0.166015 -0.95899,0.166015 -0.49333,0 -1.07233,-0.140442 -1.34765,-0.283203 -0.27533,-0.142761 -0.082,-0.04284 -0.082,0.173828 v -0.06055 c 0.41841,-7.670854 0.71875,-15.586589 0.71875,-23.458984 0,-5.748891 -0.12498,-11.505144 -0.47461,-17.109375 0.0779,-0.06511 0.23073,-0.180862 0.50976,-0.298828 0.63495,-0.268433 1.65795,-0.462891 2.47461,-0.462891 0.52743,0 0.99217,0.07334 1.22461,0.148438 0.22007,0.0711 0.0885,0.07976 -0.0547,-0.203125 z"
       id="path1583" />
    <path
       style="color:#000000;-inkscape-font-specification:Playkidz;fill:#3c254d;-inkscape-stroke:none"
       d="m 167.30078,7.6269531 c -0.93875,0 -1.89074,0.1428556 -2.79687,0.6210938 -0.90614,0.4782381 -1.83399,1.5671888 -1.83399,2.8671871 v -0.0293 c -0.0574,3.302432 -0.57418,8.294768 -1.82226,12.933593 -0.77015,2.862468 -1.87426,5.495624 -3.19336,7.613281 -1.6e-4,-0.05648 -0.004,-0.11953 -0.004,-0.175781 v -0.0098 l -0.0605,-5.990235 v -0.0039 -0.01367 c 3.1e-4,-4.523227 0.11939,-8.986031 0.35743,-13.449219 l 0.004,-0.04687 v -0.107421 c 0,-0.900075 -0.46955,-1.671673 -0.97851,-2.1582036 -0.50896,-0.4865304 -1.07878,-0.7928383 -1.67969,-1.0371094 -1.20181,-0.4885422 -2.56186,-0.7148438 -3.89258,-0.7148438 -1.075,10e-8 -2.12567,0.1333638 -3.10742,0.5722657 -0.9811,0.4386085 -2.04928,1.4580327 -2.11914,2.8281251 -0.24157,4.650176 -0.36328,9.300781 -0.36328,14.070312 v 0.0078 l 0.0605,6.195312 v 0.0059 c 0.1207,7.000378 0.48149,13.931426 0.96289,20.851562 v -0.0293 c 0.0711,1.350457 1.11537,2.334937 2.0625,2.767578 0.94714,0.432642 1.95688,0.570313 2.98438,0.570313 1.39436,0 2.80231,-0.240954 4.03125,-0.744141 0.61447,-0.251593 1.19124,-0.564336 1.70508,-1.052734 0.51383,-0.488398 0.99414,-1.258543 0.99414,-2.171875 v -0.128906 l -0.006,-0.06641 c -0.21172,-2.752407 -0.37071,-5.50546 -0.53125,-8.234375 0.0559,-0.03025 0.10995,-0.07027 0.16601,-0.101562 1.88307,2.952969 4.08377,6.767083 5.03516,10.144531 l 0.002,0.0039 v 0.002 c 0.27119,0.949139 1.00838,1.651624 1.73047,2.005859 0.7221,0.354235 1.456,0.464844 2.17188,0.464844 1.0941,0 2.16913,-0.257567 3.13281,-0.806641 0.96368,-0.549073 1.97852,-1.579637 1.97852,-3.042969 v -0.125 l -0.0957,-0.673828 -0.0391,-0.125 c -1.61814,-5.393815 -5.14213,-10.689046 -7.67383,-14.115234 4.95626,-7.636279 7.03401,-18.413729 7.68164,-25.419922 l 0.006,-0.08203 v -0.259766 c 0,-1.3522207 -0.96554,-2.4546447 -1.91015,-2.9511717 -0.94462,-0.4965271 -1.95463,-0.6582032 -2.95899,-0.6582032 z m 0,3.4999999 c 0.55564,0 1.10469,0.137387 1.33008,0.25586 0.22539,0.118472 0.0391,-0.05426 0.0391,-0.146485 v 0.07617 c -0.64899,6.955727 -2.93816,18.163037 -7.6543,24.765625 l -0.74804,1.048828 0.77929,1.027344 c 2.37762,3.13149 6.21455,8.917332 7.72657,13.882812 0.014,-0.152722 0.10577,-0.16848 -0.19336,0.002 -0.32632,0.185926 -0.9345,0.347657 -1.40039,0.347657 -0.29374,0 -0.52712,-0.06681 -0.60938,-0.103516 -1.33127,-4.580947 -4.21942,-9.295933 -6.27344,-12.376953 l -1.08789,-1.632813 -1.49804,1.267579 c -0.59267,0.501483 -1.34733,0.915603 -2.18946,1.308593 l -1.07812,0.503907 0.0703,1.185546 c 0.17269,2.935765 0.35076,5.942043 0.57813,8.957032 -0.0948,0.07107 -0.22979,0.17212 -0.50586,0.285156 -0.67606,0.276812 -1.75944,0.484375 -2.70508,0.484375 -0.6525,0 -1.26339,-0.131549 -1.53125,-0.253906 -0.26786,-0.122358 -0.0326,0.02196 -0.0215,0.232422 v -0.01563 l -0.002,-0.01367 c -0.47833,-6.875957 -0.83557,-13.740614 -0.95508,-20.65625 v -0.01172 l -0.0605,-6.150391 v -0.0039 -0.01367 c 3e-4,-4.704195 0.11929,-9.287084 0.35742,-13.871093 -0.0164,0.167316 -0.23298,0.314149 0.0547,0.185546 0.29324,-0.131097 0.95273,-0.267578 1.67773,-0.267578 0.88928,0 1.93103,0.195574 2.57422,0.457032 0.26094,0.106072 0.38281,0.199722 0.46875,0.263671 -0.22964,4.416964 -0.35352,8.835427 -0.35352,13.310547 v 0.0078 l 0.0605,6.009765 c 4.4e-4,1.599325 0.0613,3.231557 0.12109,4.845703 l 0.125,3.373047 2.68555,-2.044922 c 3.706,-2.823618 5.79957,-7.714537 7.14649,-12.720703 1.32644,-4.930081 1.85001,-9.998095 1.92578,-13.58789 0.18055,-0.09135 0.65285,-0.212891 1.14648,-0.212891 z"
       id="path1589" />
    <path
       style="color:#000000;-inkscape-font-specification:Playkidz;fill:#3c254d;-inkscape-stroke:none"
       d="m 173.78125,8.5859375 c -1.12263,0 -2.19348,0.6648216 -2.72852,1.4746095 -0.53503,0.809788 -0.70117,1.692188 -0.70117,2.554687 0,0.907777 0.18764,1.819488 0.68555,2.66211 0.32627,0.552151 0.91161,1.005463 1.58789,1.332031 -0.31502,4.499789 -0.5995,9.10955 -0.6543,13.986328 v 0.002 l -0.0605,6.009766 v 0.0078 c 0,3.223903 0.0657,6.536911 0.1582,9.931641 -0.59304,0.33118 -1.10043,0.769482 -1.39258,1.273437 -0.51156,0.882452 -0.68555,1.831769 -0.68555,2.775391 0,0.898636 0.15352,1.816531 0.66602,2.679688 0.5125,0.863157 1.61172,1.65039 2.82422,1.65039 h 8.93945 c 1.21474,0 2.26911,-0.778468 2.78711,-1.615234 0.518,-0.836766 0.70313,-1.74652 0.70313,-2.654297 0,-0.879999 -0.15839,-1.772469 -0.66602,-2.609375 -0.39783,-0.655884 -1.18325,-1.157208 -2.05664,-1.390625 -0.0912,-3.373867 -0.15609,-6.724155 -0.15625,-9.902344 v -0.01172 c 0,-0.0019 0,-0.004 0,-0.0059 l 0.0586,-5.980469 v -0.002 c 0.054,-4.750837 0.33775,-9.270466 0.65235,-13.699219 0.85185,-0.263846 1.60411,-0.758293 1.99804,-1.398437 0.52464,-0.85253 0.71094,-1.771911 0.71094,-2.679687 0,-0.8625 -0.16581,-1.744712 -0.6875,-2.5625 -0.52169,-0.8177889 -1.58885,-1.5273442 -2.74219,-1.5273442 h 0.0566 L 173.8086,8.5858835 Z m 0.17187,3.5078125 8.87696,0.287109 c 0.0423,0.09458 0.12109,0.29995 0.12109,0.595704 0,0.345681 -0.11214,0.700928 -0.1875,0.830078 h -2.32812 l -0.1211,1.621093 c -0.36129,4.877456 -0.664,9.955446 -0.72461,15.289063 l -0.0586,6.009765 v 0.0098 c 0,3.679122 0.0591,7.535757 0.17969,11.453125 l 0.0488,1.599609 2.50781,0.146485 c 0.0524,0.112966 0.14258,0.376261 0.14258,0.720703 0,0.334337 -0.10224,0.64399 -0.16993,0.769531 h -8.58593 c -0.0605,-0.124987 -0.16407,-0.438167 -0.16407,-0.830078 0,-0.388728 0.10714,-0.721061 0.19141,-0.908203 l 1.98438,0.662109 -0.0762,-2.507812 c -0.11931,-3.877648 -0.1795,-7.573623 -0.17968,-11.208985 v -0.01172 c 0,-0.0019 0,-0.004 0,-0.0059 l 0.0605,-5.978515 v -0.0039 c 0.0595,-5.285515 0.3562,-10.346517 0.71485,-15.248046 l 0.13867,-1.878907 h -2.37305 c 0.0753,0.02935 0.17023,0.113049 0.0977,-0.0098 -0.0871,-0.147377 -0.19727,-0.528638 -0.19727,-0.88086 0,-0.281654 0.0663,-0.436845 0.10156,-0.521484 z"
       id="path1595" />
    <path
       style="color:#000000;-inkscape-font-specification:Playkidz;fill:#3c254d;-inkscape-stroke:none"
       d="m 196.33984,7.2070312 c -2.72817,0 -5.52072,0.3766602 -8.11718,1.2148438 -2.29856,0.6647305 -3.77149,2.512304 -3.77149,4.494141 0,1.030525 0.44317,2.091857 1.26563,2.818359 0.42274,0.373426 0.93099,0.644389 1.48828,0.826172 l -0.11133,31.3125 c -0.48468,0.356593 -0.87439,0.802181 -1.14648,1.261719 -0.51611,0.871641 -0.77735,1.837101 -0.77735,2.841796 0,0.683333 0.12298,1.418081 0.55078,2.115235 0.42543,0.693284 1.22661,1.275002 2.10352,1.455078 2.59978,0.568807 5.06519,0.759766 7.3164,0.759766 7.91745,0 14.04762,-3.107036 18.06055,-7.779297 4.01294,-4.672261 5.94922,-10.820519 5.94922,-16.951172 0,-5.978087 -1.87209,-11.975405 -5.69141,-16.568359 -3.81931,-4.592955 -9.64146,-7.7048044 -17.0957,-7.8007818 h -0.0117 z m -0.002,3.4999998 h 0.002 c 6.51381,0.0898 11.21584,2.674618 14.42774,6.53711 3.21567,3.867037 4.88281,9.090129 4.88281,14.332031 0,5.389335 -1.72341,10.732192 -5.10547,14.669922 -3.38206,3.93773 -8.38176,6.560547 -15.4043,6.560547 -2.02116,0 -4.18936,-0.181839 -6.45117,-0.666016 -0.0116,-0.045 -0.0195,-0.03947 -0.0195,-0.164063 0,-0.315302 0.13017,-0.790236 0.28906,-1.058593 0.1589,-0.268357 0.23829,-0.219471 0.0645,-0.201172 l 1.5625,-0.164063 0.13086,-37.226562 h -1.81641 c -0.56944,0 -0.78964,-0.146347 -0.86719,-0.214844 -0.0775,-0.0685 -0.082,-0.08584 -0.082,-0.195312 0,-0.172593 0.19968,-0.836627 1.25,-1.136719 l 0.0312,-0.0098 0.0293,-0.0098 c 2.19117,-0.712132 4.65958,-1.052551 7.07617,-1.052735 z m -0.85156,1.476563 -0.0547,1.943359 c -0.18005,6.361653 -0.66069,23.641282 -1.08008,34.964844 l -0.0742,2.007812 2,-0.203125 c 4.93764,-0.500436 8.69781,-3.10152 11.05664,-6.623047 2.35884,-3.521526 3.41602,-7.90997 3.41602,-12.277343 0,-4.463761 -1.10255,-8.947502 -3.30859,-12.566407 -2.20605,-3.618904 -5.6306,-6.399478 -10.0293,-6.988281 z m 3.375,4.232422 c 2.30261,0.828835 4.17049,2.50436 5.59179,4.835937 1.79896,2.951089 2.79688,6.86791 2.79688,10.744141 0,3.792619 -0.95306,7.534658 -2.82422,10.328125 -1.52928,2.283078 -3.6482,3.916381 -6.50781,4.673828 0.3729,-10.522838 0.75452,-23.888589 0.94336,-30.582031 z"
       id="path1601" />
    <path
       style="color:#000000;-inkscape-font-specification:Playkidz;fill:#3c254d;-inkscape-stroke:none"
       d="M 232.01953,7.4453125 232,7.4472656 c -8.74065,0.2017073 -14.96875,7.4641144 -14.96875,15.5488284 0,6.606184 4.21153,13.735392 13.67773,18.089843 l -0.0176,-0.0078 c 3.10194,1.46934 3.67968,2.804986 3.67968,3.517578 0,0.611705 -0.38164,1.316749 -1.16601,1.923828 -0.78437,0.60708 -1.90759,1.00586 -2.84375,1.00586 -0.77158,0 -1.32769,-0.208154 -1.75,-0.650391 -0.42118,-0.44105 -0.81623,-1.24178 -0.81836,-2.808594 l 0.0586,-1.228515 v -0.04102 c 0,-1.206051 -0.55023,-1.700272 -1.04687,-2.251953 -0.49664,-0.551681 -1.10243,-1.06056 -1.78321,-1.533203 -1.36156,-0.945287 -2.92077,-1.804688 -4.74023,-1.804688 -1.20611,0 -2.75012,0.803097 -3.2207,2.214844 l -0.004,0.01172 -0.002,0.0098 c -0.52335,1.635467 -0.80469,3.189655 -0.80469,4.671875 0,3.588379 1.61493,6.641947 4.15234,8.671875 2.53741,2.029929 5.92399,3.114334 9.64063,3.277344 l 0.0391,0.002 h 0.75781 c 8.42839,0 13.99024,-6.095258 13.99024,-12.791015 v -0.78125 l -0.004,-0.0625 c -0.2342,-3.278812 -1.43777,-5.770066 -3.11133,-7.591797 -1.67355,-1.821732 -3.72269,-3.005458 -5.68945,-4.125 -2.64237,-1.501349 -5.09757,-2.922763 -6.8125,-5.365235 h -0.002 v -0.002 c -1.24578,-1.764845 -1.72071,-3.520531 -1.72071,-4.93164 0,-1.223461 0.3627,-2.229247 0.84961,-2.859375 0.48692,-0.630128 1.01626,-0.910157 1.72071,-0.910157 0.16555,0 0.54978,0.04771 0.77929,0.113282 h 0.004 l 0.004,0.002 c 1.13535,0.319319 2.63203,1.81059 3.64062,3.880859 l -0.0156,-0.0332 c 0.37675,0.816297 1.09302,1.406698 1.80273,1.708984 0.70972,0.302287 1.42296,0.388672 2.125,0.388672 1.55889,0 3.13326,-0.464548 4.48828,-1.291015 1.35502,-0.826468 2.66211,-2.165549 2.66211,-4.060547 0,-0.748888 -0.23481,-1.362196 -0.48437,-1.861328 l -0.0137,-0.02539 -0.0117,-0.02539 C 242.36701,10.49668 237.52421,7.4454085 232.33977,7.4454085 Z m 0.0606,3.5000005 h 0.25976 c 3.80848,0 7.47956,2.222959 9.60743,6.142578 0.0815,0.178203 0.10351,0.293604 0.10351,0.267578 0,0.145 -0.2244,0.608734 -0.98437,1.072265 -0.75998,0.463531 -1.88491,0.779297 -2.66602,0.779297 -0.37796,0 -0.65362,-0.06666 -0.75391,-0.109375 -0.10028,-0.04271 -0.0128,0.0086 0.004,0.04492 l -0.008,-0.01563 -0.008,-0.01758 c -1.27046,-2.607778 -3.13262,-4.954319 -5.83399,-5.716797 -6.7e-4,-1.92e-4 -0.001,1.92e-4 -0.002,0 -0.60974,-0.174011 -1.18445,-0.246094 -1.73828,-0.246094 -1.81556,0 -3.44716,0.919662 -4.49024,2.269532 -1.04308,1.34987 -1.58008,3.103463 -1.58008,5 0,2.188886 0.72711,4.634068 2.36133,6.949218 2.24439,3.19394 5.30734,4.894853 7.94336,6.392578 1.93323,1.100456 3.63535,2.135954 4.8418,3.449219 1.20168,1.30808 2.00342,2.866495 2.19336,5.449219 v 0.619141 c 0,4.824231 -3.67864,9.291015 -10.49024,9.291015 h -0.65429 c -3.11788,-0.138948 -5.78754,-1.063625 -7.59766,-2.511719 -1.81229,-1.450058 -2.8376,-3.347828 -2.8376,-5.939444 0,-0.973156 0.21569,-2.120027 0.59766,-3.380859 0.43475,0.02284 1.70817,0.479213 2.67773,1.152344 0.49672,0.344856 0.93,0.724807 1.17773,1 0.0978,0.108588 0.11387,0.182572 0.13086,0.234375 l -0.043,0.892578 v 0.04297 c 0,2.204812 0.62138,4.013566 1.78906,5.236328 1.16768,1.222761 2.77283,1.732422 4.28125,1.732422 1.82384,0 3.5807,-0.650363 4.98633,-1.738282 1.40563,-1.087919 2.52343,-2.723113 2.52343,-4.691406 0,-2.527405 -1.94358,-4.910983 -5.68164,-6.681641 l -0.008,-0.0039 -0.01,-0.0039 c -8.53378,-3.92554 -11.64062,-9.756352 -11.64062,-14.910156 0,-6.315272 4.68949,-11.892489 11.54883,-12.050781 z"
       id="path1607" />
  </g>
  <g
     id="layer2"
     style="display:inline">
    <path
       style="color:#000000;-inkscape-font-specification:Playkidz;fill:#ff218a;stroke-width:3.5;-inkscape-stroke:none;fill-opacity:1"
       d="m 10.16062,53.956153 c 1.44,0 2.94,-0.72 2.94,-2.4 l -0.06,-2.46 0.06,-3.6 14.16,0.3 v 4.5 c 0,1.74 1.5,3.18 3.3,3.18 h 1.68 c 0.9,0 1.68,-0.3 2.34,-0.96 0.66,-0.6 0.96,-1.32 0.96,-2.22 0,-10.92 -0.54,-20.16 -2.1,-27 -2.22,-9.54 -7.5,-13.68 -12.12,-13.68 -0.72,0 -1.44,0.12 -2.1,0.3 -8.64,2.58 -11.0399995,17.82 -11.6399995,30 -1.14,0.12 -1.68,1.44 -1.68,2.76 0,1.26 0.48,2.58 1.5,2.7 0,2.64 0,4.98 0.06,6.78 0,1.14 1.38,1.8 2.6999995,1.8 z m 16.92,-13.62 -13.74,-0.3 c 0.54,-10.38 2.28,-23.64 7.38,-23.64 h 0.18 c 1.62,0.12 3.24,2.58 4.44,8.64 0.96,4.08 1.5,9.24 1.74,15.3 z"
       id="path1557" />
    <path
       style="color:#000000;-inkscape-font-specification:Playkidz;fill:#ff7000;stroke-width:3.5;-inkscape-stroke:none;fill-opacity:1"
       d="m 45.800553,39.976153 1.56,-25.74 c 6.9,1.2 10.02,6.06 10.02,11.34 0,6.06 -4.2,12.6 -11.58,14.4 z m -4.14,14.76 c 0.42,0 0.78,0 1.2,-0.18 2.1,-0.9 2.22,-2.88 2.34,-4.86 l 0.24,-4.38 1.26,-0.18 c 1.56,2.94 4.5,7.26 9.36,9.12 0.48,0.18 0.84,0.24 1.2,0.24 1.62,0 2.34,-1.44 2.34,-2.88 0,-1.2 -0.48,-2.34 -1.44,-2.58 -0.48,-0.06 -0.84,-0.42 -1.2,-0.66 -1.8,-1.32 -2.82,-3.36 -3.42,-5.34 7.5,-3.66 11.82,-11.1 11.82,-18.12 0,-8.04 -5.64,-15.48 -18.72,-16.08 h -1.08 c -2.22,0 -4.44,0.3 -6.54,0.9 -1.68,0.48 -2.58,1.74 -2.58,2.94 0,1.14 0.84,2.16 2.64,2.22 l -1.38,36.48 c 0,1.86 1.5,3.36 3.3,3.36 z"
       id="path1563" />
    <path
       style="color:#000000;-inkscape-font-specification:Playkidz;fill:#00a8bb;stroke-width:3.5;-inkscape-stroke:none;fill-opacity:1"
       d="m 78.800588,54.316153 c 7.62,0 12.24,-5.28 12.24,-11.04 v -0.72 c -0.42,-5.88 -4.02,-8.1 -7.92,-10.32 -2.64,-1.5 -5.4,-3.06 -7.38,-5.88 -1.44,-2.04 -2.04,-4.14 -2.04,-5.94 0,-3.12 1.8,-5.52 4.32,-5.52 0.36,0 0.84,0.06 1.26,0.18 1.92,0.54 3.6,2.46 4.74,4.8 0.36,0.78 1.26,1.08 2.34,1.08 2.34,0 5.4,-1.56 5.4,-3.6 0,-0.36 -0.12,-0.72 -0.3,-1.08 -2.4,-4.44 -6.66,-7.08 -11.16,-7.08 h -0.3 c -7.8,0.18 -13.26,6.6 -13.26,13.8 0,5.88 3.66,12.36 12.66,16.5 3.42,1.62 4.68,3.48 4.68,5.1 0,2.58 -3,4.68 -5.76,4.68 -2.28,0 -4.32,-1.44 -4.32,-5.22 l 0.06,-1.26 c 0,-1.14 -3.6,-3.84 -5.82,-3.84 -0.72,0 -1.32,0.3 -1.56,1.02 -0.48,1.5 -0.72,2.88 -0.72,4.14 0,6.18 5.28,9.9 12.12,10.2 z"
       id="path1569" />
    <path
       style="color:#000000;-inkscape-font-specification:Playkidz;fill:#c41aa1;stroke-width:3.5;-inkscape-stroke:none;fill-opacity:1"
       d="m 96.140606,53.716153 c 2.64,-0.24 5.340004,-0.3 7.980004,-0.3 l 9,0.06 c 1.14,0 1.8,-1.5 1.8,-2.88 0,-1.26 -0.54,-2.46 -1.74,-2.46 l -10.86,0.42 c -0.18,-1.98 -0.3,-3.9 -0.42,-5.82 l 7.86,0.36 c 1.2,0 1.74,-1.26 1.74,-2.52 0,-1.38 -0.66,-2.82 -1.8,-2.82 h -7.92 v -2.58 c 0,-6.6 0.36,-13.2 0.9,-19.8 l 10.74,0.42 c 1.2,0 1.92,-1.62 1.92,-3.06 0,-1.2 -0.54,-2.34 -1.68,-2.34 -6.78,-0.06 -13.26,-0.12 -19.980004,-0.54 h -0.12 c -1.2,0 -1.8,1.32 -1.8,2.58 0,1.14 0.54,2.28 1.56,2.34 l 1.14,0.12 c -0.6,6.96 -0.96,13.92 -0.96,20.94 0,5.46 0.24,10.92 0.84,16.38 0.06,0.84 0.84,1.5 1.68,1.5 z"
       id="path1575" />
    <path
       style="color:#000000;-inkscape-font-specification:Playkidz;fill:#008724;stroke-width:3.5;-inkscape-stroke:none;fill-opacity:1"
       d="m 138.98058,54.256153 c 2.1,0 5.04,-0.96 5.16,-2.28 1.26,-13.44 1.62,-27.12 1.62,-40.62 0,-1.2 -1.14,-1.68 -2.34,-1.68 -1.62,0 -3.42,0.78 -3.42,1.98 v 0.06 c 0.06,4.5 0.18,8.7 0.18,12.84 0,5.46 -0.18,10.86 -0.6,16.74 -6,-10.56 -10.08,-20.52 -14.4,-31.08 -0.3,-0.66 -1.44,-0.96 -2.76,-0.96 -2.1,0 -4.74,0.84 -4.74,2.28 v 0.06 c 0.36,5.64 0.48,11.46 0.48,17.28 0,7.86 -0.3,15.78 -0.72,23.46 v 0.06 c 0,1.2 1.68,1.86 3.18,1.86 1.38,0 2.64,-0.48 2.7,-1.62 0.3,-5.34 0.48,-11.1 0.48,-16.74 l -0.12,-8.28 c 4.02,8.76 8.46,17.52 13.2,25.92 0.24,0.48 1.08,0.72 2.1,0.72 z"
       id="path1581" />
    <path
       style="color:#000000;-inkscape-font-specification:Playkidz;fill:#ffc600;stroke-width:3.5;-inkscape-stroke:none;fill-opacity:1"
       d="m 167.18062,54.136153 c 1.56,0 3.36,-0.84 3.36,-2.1 l -0.06,-0.42 c -1.62,-5.4 -5.58,-11.28 -8.04,-14.52 5.1,-7.14 7.32,-18.54 7.98,-25.68 v -0.18 c 0,-1.26 -1.56,-1.86 -3.12,-1.86 -1.44,0 -2.88,0.54 -2.88,1.74 -0.12,6.9 -2.1,20.34 -8.4,25.14 -0.06,-1.62 -0.12,-3.24 -0.12,-4.8 l -0.06,-6 c 0,-4.56 0.12,-9.06 0.36,-13.56 v -0.06 c 0,-1.32 -2.58,-2.16 -4.8,-2.16 -1.8,0 -3.42,0.54 -3.48,1.74 -0.24,4.62 -0.36,9.24 -0.36,13.98 l 0.06,6.18 c 0.12,6.96 0.48,13.86 0.96,20.76 0.06,1.14 1.62,1.68 3.3,1.68 2.34,0 4.98,-0.9 4.98,-2.22 v -0.06 c -0.24,-3.12 -0.42,-6.24 -0.6,-9.3 0.9,-0.42 1.8,-0.9 2.58,-1.56 2.04,3.06 4.92,7.8 6.12,12.06 0.24,0.84 1.2,1.2 2.22,1.2 z"
       id="path1587" />
    <path
       style="color:#000000;-inkscape-font-specification:Playkidz;fill:#ff5645;stroke-width:3.5;-inkscape-stroke:none;fill-opacity:1"
       d="m 182.42062,53.176153 c 1.14,0 1.74,-1.26 1.74,-2.52 0,-1.26 -0.54,-2.46 -1.68,-2.46 l -1.02,-0.06 c -0.12,-3.9 -0.18,-7.74 -0.18,-11.4 l 0.06,-6 c 0.06,-5.28 0.36,-10.32 0.72,-15.18 h 0.84 c 1.2,0 1.8,-1.32 1.8,-2.58 0,-1.2 -0.54,-2.34 -1.68,-2.34 l -9.24,-0.3 c -1.14,0 -1.68,1.08 -1.68,2.28 0,1.26 0.6,2.58 1.74,2.64 h 0.6 c -0.36,4.92 -0.66,10.02 -0.72,15.36 l -0.06,6 c 0,3.66 0.06,7.38 0.18,11.28 -0.18,-0.06 -0.12,-0.06 -0.3,-0.06 -1.2,0 -1.8,1.38 -1.8,2.76 0,1.32 0.54,2.58 1.74,2.58 z"
       id="path1593" />
    <path
       style="color:#000000;-inkscape-font-specification:Playkidz;fill:#008724;stroke-width:3.5;-inkscape-stroke:none;fill-opacity:1"
       d="m 196.10058,49.156153 c 0.42,-11.34 0.9,-28.62 1.08,-34.98 7.62,1.02 11.82,9.48 11.82,17.82 0,8.16 -4.02,16.26 -12.9,17.16 z m -0.96,5.4 c 14.94,0 22.26,-11.46 22.26,-22.98 0,-11.22 -7.08,-22.44 -21.06,-22.62 -2.58,0 -5.22,0.36 -7.62,1.14 -1.68,0.48 -2.52,1.74 -2.52,2.82 0,1.14 0.9,2.16 2.7,2.16 h 0.06 l -0.12,33.9 c -1.14,0.12 -1.92,1.68 -1.92,3 0,0.9 0.36,1.68 1.26,1.86 2.46,0.54 4.8,0.72 6.96,0.72 z"
       id="path1599" />
    <path
       style="color:#000000;-inkscape-font-specification:Playkidz;fill:#00a8bb;stroke-width:3.5;-inkscape-stroke:none;fill-opacity:1"
       d="m 230.84061,54.316153 c 7.62,0 12.24,-5.28 12.24,-11.04 v -0.72 c -0.42,-5.88 -4.02,-8.1 -7.92,-10.32 -2.64,-1.5 -5.4,-3.06 -7.38,-5.88 -1.44,-2.04 -2.04,-4.14 -2.04,-5.94 0,-3.12 1.8,-5.52 4.32,-5.52 0.36,0 0.84,0.06 1.26,0.18 1.92,0.54 3.6,2.46 4.74,4.8 0.36,0.78 1.26,1.08 2.34,1.08 2.34,0 5.4,-1.56 5.4,-3.6 0,-0.36 -0.12,-0.72 -0.3,-1.08 -2.4,-4.44 -6.66,-7.08 -11.16,-7.08 h -0.3 c -7.8,0.18 -13.26,6.6 -13.26,13.8 0,5.88 3.66,12.36 12.66,16.5 3.42,1.62 4.68,3.48 4.68,5.1 0,2.58 -3,4.68 -5.76,4.68 -2.28,0 -4.32,-1.44 -4.32,-5.22 l 0.06,-1.26 c 0,-1.14 -3.6,-3.84 -5.82,-3.84 -0.72,0 -1.32,0.3 -1.56,1.02 -0.48,1.5 -0.72,2.88 -0.72,4.14 0,6.18 5.28,9.9 12.12,10.2 z"
       id="path1605" />
  </g>
</svg>
